<?xml version="1.0" encoding="iso-8859-1"?>
<!-- Uploaded to: SVG Repo, www.svgrepo.com, Generator: SVG Repo Mixer Tools -->
<!DOCTYPE svg PUBLIC "-//W3C//DTD SVG 1.1//EN" "http://www.w3.org/Graphics/SVG/1.1/DTD/svg11.dtd">
<svg version="1.1" id="Capa_1" xmlns="http://www.w3.org/2000/svg" xmlns:xlink="http://www.w3.org/1999/xlink" 
	 viewBox="0 0 297.5 297.5" xml:space="preserve">
<g id="XMLID_36_">
	<g>
		<rect x="57.815" y="232.02" style="fill:#D95459;" width="18.78" height="45.46"/>
		<rect x="123.055" y="232.02" style="fill:#D95459;" width="18.77" height="45.46"/>
		<rect x="188.285" y="232.02" style="fill:#D95459;" width="18.78" height="45.46"/>
		<rect x="253.515" y="232.02" style="fill:#D95459;" width="15.81" height="45.46"/>
		<path style="fill:#BDC3C7;" d="M269.325,143.86v68.39H28.165v-68.39c6.58,4.18,14.38,6.62,22.74,6.62
			c13.09,0,24.81-5.95,32.61-15.29c7.8,9.34,19.53,15.29,32.62,15.29s24.81-5.95,32.61-15.29c7.81,9.34,19.53,15.29,32.62,15.29
			c13.09,0,24.81-5.95,32.61-15.29c7.81,9.34,19.53,15.29,32.62,15.29C254.955,150.48,262.745,148.04,269.325,143.86z"/>
		<polygon style="fill:#99ABD5;" points="73.635,20.02 73.635,78.33 30.445,78.33 42.625,20.02 		"/>
		<path style="fill:#99ABD5;" d="M73.635,98.1v9.88c0,12.54-10.2,22.73-22.73,22.73c-12.54,0-22.74-10.19-22.74-22.73V98.1H73.635z"
			/>
		<rect x="158.635" y="20.02" style="fill:#99ABD5;" width="45.46" height="58.31"/>
		<path style="fill:#99ABD5;" d="M204.095,98.1v9.88c0,12.54-10.2,22.73-22.73,22.73c-12.54,0-22.73-10.19-22.73-22.73V98.1H204.095
			z"/>
		<rect x="93.405" y="20.02" style="fill:#3498DB;" width="45.46" height="58.31"/>
		<path style="fill:#3498DB;" d="M138.865,98.1v9.88c0,12.54-10.2,22.73-22.73,22.73c-12.54,0-22.73-10.19-22.73-22.73V98.1H138.865
			z"/>
		<polygon style="fill:#3498DB;" points="254.875,20.02 267.045,78.33 223.865,78.33 223.865,20.02 		"/>
		<path style="fill:#3498DB;" d="M269.325,98.1v9.88c0,12.54-10.2,22.73-22.73,22.73s-22.73-10.19-22.73-22.73V98.1H269.325z"/>
		<path d="M289.095,86.19v201.18c0,5.45-4.43,9.88-9.88,9.88H18.285c-5.46,0-9.88-4.43-9.88-9.88V86.19l16.51-78.08
			c0.96-4.58,5-7.86,9.68-7.86h48.92h65.23h65.23h48.93c4.68,0,8.72,3.28,9.67,7.86L289.095,86.19z M269.325,277.48v-45.46h-15.81
			v45.46H269.325z M269.325,212.25v-68.39c-6.58,4.18-14.37,6.62-22.73,6.62c-13.09,0-24.81-5.95-32.62-15.29
			c-7.8,9.34-19.52,15.29-32.61,15.29c-13.09,0-24.81-5.95-32.62-15.29c-7.8,9.34-19.52,15.29-32.61,15.29s-24.82-5.95-32.62-15.29
			c-7.8,9.34-19.52,15.29-32.61,15.29c-8.36,0-16.16-2.44-22.74-6.62v68.39H269.325z M269.325,107.98V98.1h-45.46v9.88
			c0,12.54,10.2,22.73,22.73,22.73S269.325,120.52,269.325,107.98z M267.045,78.33l-12.17-58.31h-31.01v58.31H267.045z
			 M239.675,277.48v-45.46h-18.78v45.46H239.675z M207.065,277.48v-45.46h-18.78v45.46H207.065z M204.095,107.98V98.1h-45.46v9.88
			c0,12.54,10.19,22.73,22.73,22.73C193.895,130.71,204.095,120.52,204.095,107.98z M204.095,78.33V20.02h-45.46v58.31H204.095z
			 M174.445,277.48v-45.46h-18.78v45.46H174.445z M141.825,277.48v-45.46h-18.77v45.46H141.825z M138.865,107.98V98.1h-45.46v9.88
			c0,12.54,10.19,22.73,22.73,22.73C128.665,130.71,138.865,120.52,138.865,107.98z M138.865,78.33V20.02h-45.46v58.31H138.865z
			 M109.215,277.48v-45.46h-18.78v45.46H109.215z M76.595,277.48v-45.46h-18.78v45.46H76.595z M73.635,107.98V98.1h-45.47v9.88
			c0,12.54,10.2,22.73,22.74,22.73C63.435,130.71,73.635,120.52,73.635,107.98z M73.635,78.33V20.02h-31.01l-12.18,58.31H73.635z
			 M43.985,277.48v-45.46h-15.82v45.46H43.985z"/>
	</g>
	<g>
	</g>
</g>
</svg>