<svg width="192" height="48" viewBox="0 0 192 48" fill="none" xmlns="http://www.w3.org/2000/svg">
<path d="M124.254 38.5139C124.448 38.5139 124.545 38.5878 124.545 38.7415V39.7486C124.545 39.9022 124.448 39.9819 124.254 39.9819H120.321V45.4729C120.321 45.6265 120.229 45.7005 120.047 45.7005H118.682C118.5 45.7005 118.408 45.6265 118.408 45.4729V39.9819H114.481C114.287 39.9819 114.19 39.9022 114.19 39.7486V38.7415C114.19 38.5878 114.287 38.5139 114.481 38.5139H124.254Z" fill="#F88C1A"/>
<path d="M145.7 38.5139C145.888 38.5139 145.985 38.5878 145.985 38.7415V39.7145C145.985 39.8681 145.888 39.9421 145.7 39.9421H140.231C139.961 39.9371 139.692 39.96 139.427 40.0104C139.24 40.0424 139.064 40.1185 138.913 40.2323C138.778 40.3431 138.684 40.4951 138.644 40.6647C138.587 40.8839 138.56 41.1098 138.565 41.3362V41.4386H145.637C145.82 41.4386 145.911 41.5182 145.911 41.6662V42.4799C145.911 42.6278 145.82 42.7018 145.637 42.7018H138.587V42.8782C138.583 43.1046 138.61 43.3305 138.667 43.5496C138.707 43.7193 138.801 43.8713 138.936 43.9821C139.085 44.0994 139.262 44.1777 139.449 44.2097C139.715 44.255 139.985 44.2759 140.254 44.2723H145.723C145.911 44.2723 146.008 44.3519 146.008 44.4999V45.4729C146.008 45.6265 145.911 45.7005 145.723 45.7005H140.214C139.674 45.7101 139.135 45.6624 138.605 45.5582C138.213 45.4853 137.842 45.3259 137.52 45.0917C137.239 44.8758 137.027 44.5833 136.909 44.2495C136.77 43.8452 136.704 43.4194 136.715 42.992V41.2394C136.704 40.8139 136.77 40.3899 136.909 39.9876C137.028 39.6562 137.24 39.3659 137.52 39.1512C137.843 38.9172 138.213 38.756 138.605 38.6789C139.134 38.5725 139.674 38.5229 140.214 38.5309L145.7 38.5139Z" fill="#F88C1A"/>
<path d="M167.974 38.5139C168.157 38.5139 168.248 38.5878 168.248 38.7415V39.7486C168.248 39.9022 168.157 39.9819 167.974 39.9819H162.408C162.136 39.9771 161.865 40 161.598 40.0502C161.412 40.0831 161.238 40.1613 161.09 40.2778C160.963 40.3905 160.87 40.5364 160.821 40.6989C160.764 40.9218 160.737 41.1515 160.741 41.3817V42.8384C160.747 43.0679 160.783 43.2957 160.85 43.5155C160.897 43.6802 160.99 43.8282 161.118 43.9423C161.266 44.0588 161.441 44.137 161.626 44.1699C161.893 44.22 162.165 44.2429 162.437 44.2381H168.002C168.185 44.2381 168.276 44.3121 168.276 44.4657V45.4672C168.276 45.6208 168.185 45.6948 168.002 45.6948H162.357C161.817 45.7044 161.277 45.6568 160.747 45.5526C160.355 45.4797 159.985 45.3202 159.663 45.086C159.381 44.8701 159.169 44.5776 159.052 44.2438C158.912 43.8395 158.847 43.4137 158.858 42.9863V41.2394C158.847 40.8139 158.912 40.3899 159.052 39.9876C159.171 39.6562 159.383 39.3659 159.663 39.1512C159.985 38.9172 160.355 38.756 160.747 38.6789C161.277 38.5725 161.817 38.5229 162.357 38.5309L167.974 38.5139Z" fill="#F88C1A"/>
<path d="M182.541 38.5139C182.724 38.5139 182.815 38.5878 182.815 38.7415V41.4101H188.672V38.7415C188.672 38.5878 188.764 38.5139 188.946 38.5139H190.299C190.487 38.5139 190.585 38.5878 190.585 38.7415V45.4729C190.585 45.6265 190.487 45.7005 190.299 45.7005H188.946C188.764 45.7005 188.672 45.6265 188.672 45.4729V42.7416H182.81V45.4729C182.81 45.6265 182.718 45.7005 182.536 45.7005H181.183C180.995 45.7005 180.897 45.6265 180.897 45.4729V38.7415C180.897 38.5878 180.995 38.5139 181.183 38.5139H182.541Z" fill="#F88C1A"/>
<path d="M42.1168 16.6808C42.5278 16.6808 42.7333 16.8705 42.7333 17.2498V27.4352C42.7183 28.0097 42.7797 28.5837 42.916 29.1422C43.0025 29.5449 43.2002 29.9154 43.4868 30.212C43.8075 30.5029 44.2026 30.6998 44.6285 30.781C45.22 30.9015 45.823 30.9568 46.4266 30.946H54.1557C54.7612 30.9565 55.3661 30.9012 55.9595 30.781C56.3854 30.6998 56.7806 30.5029 57.1012 30.212C57.3907 29.9175 57.5888 29.5461 57.672 29.1422C57.7982 28.5822 57.8557 28.009 57.8433 27.4352V17.2441C57.8433 16.8686 58.0431 16.6751 58.4541 16.6751H61.5252C61.9362 16.6751 62.1417 16.8648 62.1417 17.2441V27.8164C62.1642 28.8732 62.0217 29.9271 61.7193 30.9403C61.4723 31.7501 61.0039 32.4752 60.3664 33.0343C59.6612 33.6025 58.829 33.9929 57.9403 34.1723C56.7536 34.4286 55.541 34.547 54.327 34.5251H46.2725C45.0622 34.548 43.8533 34.4296 42.6706 34.1723C41.7857 33.9918 40.9574 33.6014 40.2559 33.0343C39.6156 32.4755 39.1434 31.7506 38.8916 30.9403C38.5794 29.929 38.4329 28.8742 38.4578 27.8164V17.2441C38.4578 16.8686 38.669 16.6751 39.0971 16.6751L42.1168 16.6808Z" fill="#2272C7"/>
<path d="M134.061 16.6808C134.483 16.6808 134.7 16.8686 134.7 17.2498V19.6738C134.7 20.0494 134.483 20.2428 134.061 20.2428H121.862C121.258 20.2291 120.655 20.2845 120.064 20.4078C119.64 20.4943 119.246 20.6906 118.922 20.9769C118.632 21.2706 118.433 21.6423 118.352 22.0466C118.232 22.596 118.176 23.1574 118.186 23.7195V23.9756H133.952C134.363 23.9756 134.569 24.1652 134.569 24.5446V26.5589C134.569 26.9382 134.363 27.1279 133.952 27.1279H118.152V27.5603C118.142 28.1225 118.197 28.6839 118.317 29.2332C118.399 29.6392 118.597 30.0128 118.888 30.3087C119.213 30.593 119.607 30.7889 120.03 30.8777C120.621 31.0033 121.224 31.0606 121.828 31.0484H134.027C134.449 31.0484 134.666 31.2362 134.666 31.6174V34.0471C134.666 34.4227 134.449 34.6161 134.027 34.6161H121.777C120.568 34.639 119.361 34.5206 118.18 34.2633C117.295 34.0828 116.467 33.6925 115.766 33.1253C115.126 32.5653 114.652 31.841 114.396 31.0313C114.088 30.0191 113.944 28.9647 113.968 27.9074V23.4236C113.943 22.3681 114.087 21.3155 114.396 20.3054C114.658 19.5018 115.131 18.7827 115.766 18.2228C116.467 17.6481 117.294 17.2465 118.18 17.0507C119.36 16.784 120.567 16.6598 121.777 16.6808H134.061Z" fill="#2272C7"/>
<path d="M142.972 16.6808C143.327 16.6762 143.682 16.7009 144.033 16.7547C144.309 16.8002 144.573 16.9009 144.81 17.0506C145.045 17.2018 145.25 17.3946 145.415 17.6196C145.632 17.9312 145.823 18.2605 145.986 18.604L151.791 30.8606C151.824 30.9341 151.879 30.9958 151.949 31.0374C152.018 31.0791 152.098 31.0988 152.179 31.0939H152.516C152.597 31.0988 152.677 31.0791 152.746 31.0374C152.816 30.9958 152.871 30.9341 152.904 30.8606L158.681 18.6211C158.841 18.2763 159.032 17.9468 159.252 17.6367C159.405 17.4131 159.598 17.2201 159.823 17.0677C160.055 16.919 160.315 16.8183 160.587 16.7718C160.933 16.7175 161.282 16.6928 161.632 16.6978H164.623C165.586 16.6978 166.237 16.8875 166.576 17.2669C166.966 17.8794 167.143 18.6036 167.078 19.3267V33.9959C167.078 34.3714 166.861 34.5649 166.433 34.5649H163.579C163.168 34.5649 162.962 34.3828 162.962 33.9959V20.6639C162.962 20.4932 162.888 20.4078 162.74 20.4078H162.488C162.413 20.3987 162.338 20.4137 162.272 20.4505C162.206 20.4874 162.154 20.5442 162.123 20.6127L156.489 32.0555C156.294 32.454 156.065 32.8348 155.804 33.1936C155.59 33.4868 155.336 33.7491 155.05 33.9731C154.777 34.1789 154.464 34.3261 154.131 34.4056C153.733 34.4957 153.324 34.5377 152.915 34.5307H151.574C151.167 34.5378 150.761 34.4957 150.364 34.4056C150.029 34.3261 149.714 34.1789 149.439 33.9731C149.153 33.7491 148.9 33.4868 148.686 33.1936C148.429 32.8332 148.201 32.4526 148.006 32.0555L142.366 20.6127C142.335 20.5442 142.283 20.4874 142.217 20.4505C142.152 20.4137 142.076 20.3987 142.001 20.4078H141.756C141.602 20.4078 141.527 20.4932 141.527 20.6639V33.9959C141.527 34.3714 141.322 34.5649 140.917 34.5649H138.062C137.634 34.5649 137.423 34.3828 137.423 33.9959V19.3381C137.355 18.6148 137.532 17.8896 137.925 17.2782C138.256 16.8799 138.919 16.7092 139.906 16.7092L142.972 16.6808Z" fill="#2272C7"/>
<path d="M189.962 16.6808C190.39 16.6808 190.602 16.8686 190.602 17.2498V19.6738C190.602 20.0494 190.39 20.2428 189.962 20.2428H177.741C177.137 20.2291 176.534 20.2845 175.943 20.4078C175.518 20.4923 175.124 20.6888 174.801 20.9769C174.496 21.2649 174.285 21.6376 174.196 22.0466C174.076 22.596 174.021 23.1574 174.03 23.7195V23.9756H189.797C190.208 23.9756 190.413 24.1652 190.413 24.5446V26.5589C190.413 26.9382 190.208 27.1279 189.797 27.1279H174.03V27.5604C174.021 28.1225 174.076 28.6839 174.196 29.2333C174.285 29.6439 174.496 30.0184 174.801 30.3087C175.125 30.595 175.519 30.7912 175.943 30.8777C176.533 31.0033 177.137 31.0606 177.741 31.0484H189.962C190.39 31.0484 190.602 31.2362 190.602 31.6174V34.0471C190.602 34.4227 190.39 34.6161 189.962 34.6161H177.661C176.451 34.639 175.242 34.5206 174.059 34.2633C173.174 34.0828 172.346 33.6925 171.644 33.1253C171.004 32.5665 170.532 31.8417 170.28 31.0313C169.968 30.0201 169.821 28.9652 169.846 27.9075V23.4236C169.82 22.3677 169.967 21.3145 170.28 20.3054C170.538 19.5011 171.009 18.7814 171.644 18.2228C172.345 17.6481 173.173 17.2465 174.059 17.0507C175.24 16.784 176.45 16.6598 177.661 16.6808H189.962Z" fill="#2272C7"/>
<path d="M36.3741 2.40422C31.1395 -1.43662 19.7571 4.82253 10.9663 16.4475C2.17546 28.0725 -0.695826 40.6078 4.51588 44.4771C8.80855 47.6409 17.2398 43.9821 24.986 36.1468C18.4613 42.5539 11.5485 45.5412 7.67259 43.1229C7.54701 43.0489 7.42142 42.9749 7.30155 42.8896C2.90613 39.7885 4.36746 30.138 10.3726 20.2997C11.1033 19.0934 11.891 17.8814 12.753 16.6865C20.6648 5.68743 31.0996 -0.378256 36.0601 3.11549C39.8105 5.77848 39.3595 13.1586 35.4893 21.3581V21.3865C39.6621 12.9025 40.25 5.26636 36.3741 2.40422Z" fill="#F88C1A"/>
<path d="M86.6416 21.4946C86.6529 20.1973 86.1575 18.9464 85.2602 18.0066C84.3278 17.1227 82.7922 16.6808 80.6535 16.6808H65.6863C65.1269 16.6808 64.8472 16.9368 64.8472 17.449V31.6743V33.9504C64.8472 34.3259 65.0641 34.5194 65.4922 34.5194H68.5062C68.9115 34.5194 69.117 34.3373 69.117 33.9504V31.6743V27.1222H80.6707C82.8132 27.1222 84.3487 26.7087 85.2773 25.8817C86.0704 25.1374 86.5499 24.1203 86.6187 23.0367C86.6509 22.7533 86.6681 22.4684 86.6701 22.1832V21.91C86.6701 21.7905 86.6416 21.6426 86.6416 21.4946ZM81.8009 23.452C81.2139 23.857 80.5023 24.0424 79.7916 23.9755H69.117V20.5102C69.117 20.3054 69.2369 20.203 69.4823 20.203H79.7916C80.5094 20.1328 81.2273 20.3361 81.8009 20.772C82.1581 21.1477 82.3617 21.6429 82.3717 22.1604C82.3624 22.6463 82.1638 23.1095 81.818 23.452H81.8009Z" fill="#2272C7"/>
<path d="M111.872 33.9162L111.707 33.7341L106.05 27.0994C107.762 27.0084 109.047 26.6044 109.857 25.8818C110.652 25.1388 111.132 24.1209 111.199 23.0367C111.234 22.7535 111.251 22.4685 111.25 22.1832V21.91C111.25 21.7621 111.25 21.6141 111.25 21.4662C111.266 20.1679 110.77 18.9153 109.869 17.9781C108.94 17.0943 107.405 16.6523 105.262 16.6523H90.2434C89.684 16.6523 89.4043 16.9084 89.4043 17.4205V31.6459V33.9219C89.4043 34.2975 89.6212 34.4909 90.0493 34.4909H93.0633C93.4686 34.4909 93.6741 34.3088 93.6741 33.9219V31.6459V27.0938H101.232L105.057 31.6971L107.129 34.195C107.202 34.2995 107.298 34.3868 107.408 34.4511C107.568 34.513 107.74 34.5383 107.911 34.5251H111.507C111.77 34.5251 111.918 34.4454 111.952 34.2747C111.97 34.2131 111.972 34.1479 111.958 34.0852C111.944 34.0226 111.915 33.9644 111.872 33.9162V33.9162ZM93.6741 23.0651V20.5103C93.6741 20.3054 93.794 20.203 94.0395 20.203H104.366C105.084 20.1328 105.802 20.3361 106.375 20.772C106.73 21.1492 106.933 21.6434 106.946 22.1604C106.931 22.65 106.726 23.1148 106.375 23.4578C105.788 23.8627 105.077 24.0481 104.366 23.9812H93.6741V23.0651Z" fill="#2272C7"/>
<path d="M34.8554 26.6784C35.0965 26.4492 35.2844 26.1701 35.4059 25.8609C35.5273 25.5516 35.5794 25.2196 35.5585 24.8882C35.5375 24.5567 35.4441 24.2338 35.2847 23.9422C35.1253 23.6506 34.9037 23.3972 34.6357 23.2C34.3676 23.0028 34.0595 22.8664 33.733 22.8004C33.4064 22.7345 33.0694 22.7406 32.7455 22.8183C32.4215 22.896 32.1186 23.0434 31.8579 23.2502C31.5972 23.457 31.385 23.7182 31.2363 24.0154C32.2086 24.0859 33.1328 24.4648 33.8736 25.0965C34.3352 25.5281 34.674 26.0739 34.8554 26.6784V26.6784Z" fill="#F88C1A"/>
<path d="M33.3259 27.2645C33.8887 27.2692 34.4336 27.0666 34.8557 26.6955C34.6743 26.091 34.3355 25.5452 33.8739 25.1136C33.1331 24.4819 32.2089 24.103 31.2366 24.0325C31.0963 24.3317 31.0241 24.6581 31.0254 24.9884C31.0254 25.2887 31.085 25.5861 31.2008 25.8634C31.3167 26.1406 31.4864 26.3923 31.7002 26.6039C31.9141 26.8155 32.1678 26.9828 32.4468 27.0961C32.7258 27.2095 33.0246 27.2667 33.3259 27.2645V27.2645Z" fill="#2272C7"/>
<path d="M33.3257 27.5262C32.6464 27.5247 31.9954 27.2551 31.515 26.7762C31.0347 26.2974 30.7642 25.6485 30.7627 24.9713C30.7633 24.6351 30.8312 24.3024 30.9625 23.9926C30.7227 23.9926 30.483 23.9585 30.2204 23.9585H19.7684C19.5728 23.9878 19.3729 23.9712 19.1848 23.91C18.9967 23.8488 18.8255 23.7448 18.6848 23.6062C18.544 23.4676 18.4377 23.2981 18.3741 23.1114C18.3105 22.9246 18.2915 22.7256 18.3185 22.5303V21.6597C18.2979 21.2813 18.4178 20.9086 18.6553 20.6127C18.8071 20.4713 18.9876 20.3641 19.1846 20.2984C19.3815 20.2326 19.5904 20.2098 19.797 20.2314H33.7595C34.1705 20.2314 34.376 20.0418 34.376 19.6624V17.2441C34.376 16.8648 34.1705 16.6751 33.7595 16.6751H18.9921C17.2986 16.6751 16.0523 17.0545 15.2531 17.8131C14.853 18.2032 14.5395 18.6727 14.333 19.1913C14.1265 19.7098 14.0316 20.2658 14.0544 20.8232V22.6896C14.014 23.291 14.1032 23.8942 14.3158 24.4585C14.5285 25.0228 14.8597 25.5352 15.2874 25.9614C16.1037 26.7182 17.3253 27.0994 18.9407 27.0994H29.387C29.5826 27.0702 29.7824 27.0868 29.9706 27.1479C30.1587 27.2091 30.3299 27.3131 30.4706 27.4517C30.6113 27.5904 30.7177 27.7598 30.7813 27.9466C30.8449 28.1333 30.8639 28.3323 30.8369 28.5277V29.5747C30.8575 29.953 30.7376 30.3258 30.5001 30.6216C30.3488 30.764 30.1685 30.8723 29.9715 30.939C29.7745 31.0058 29.5654 31.0295 29.3584 31.0086H14.7165C14.2884 31.0086 14.0715 31.1963 14.0715 31.5776V34.0073C14.0715 34.3828 14.2884 34.5763 14.7165 34.5763H30.129C31.8225 34.5763 33.0688 34.197 33.868 33.4383C34.2682 33.0482 34.5816 32.5787 34.7881 32.0601C34.9946 31.5416 35.0896 30.9856 35.0668 30.4282V28.3513C35.069 27.8812 35.0114 27.4128 34.8955 26.9572C34.4507 27.3163 33.898 27.5166 33.3257 27.5262Z" fill="#2272C7"/>
</svg>
